<?xml version="1.0" encoding="utf-8"?>
<!-- Generator: Adobe Illustrator 19.0.0, SVG Export Plug-In . SVG Version: 6.00 Build 0)  -->
<svg version="1.1" id="Camada_1" xmlns="http://www.w3.org/2000/svg" xmlns:xlink="http://www.w3.org/1999/xlink" x="0px" y="0px"
	 viewBox="0 0 421.5 148.2" style="enable-background:new 0 0 421.5 148.2;" xml:space="preserve">
<style type="text/css">
	.st0{fill:#A0D083;}
	.st1{fill:none;stroke:#6D6E71;stroke-width:6;stroke-miterlimit:10;}
	.st2{fill:#6D6E71;}
	.st3{fill:#FFFFFF;stroke:#FFFFFF;stroke-miterlimit:10;}
	.st4{fill:#FFFFFF;}
</style>
<g>
	<rect y="0.3" class="st0" width="175.6" height="143.6"/>
	<rect x="12.4" y="14.4" class="st1" width="149.9" height="115.6"/>
	<line class="st1" x1="12.6" y1="72.1" x2="162.1" y2="72.1"/>
	<circle class="st2" cx="87.8" cy="31.4" r="7.3"/>
	<circle class="st2" cx="87.8" cy="88.7" r="7.3"/>
	<g>
		<path class="st3" d="M202.3,0h25L286,71.6V0h26.1v108.7H287l-58.6-71.3v71.3h-26.1V0z"/>
		<path class="st3" d="M336.1,0h83l-48.8,88.8h45.7v19.9h-83.8l48.6-88.2h-44.6V0z"/>
	</g>
	<g>
		<path class="st4" d="M208.7,122.8h3.6l4.5,13.9l4.5-13.9h3.6l3.2,20h-3.6l-2.1-12.6l-4.1,12.6h-3.2l-4.1-12.6l-2.1,12.6h-3.6
			L208.7,122.8z"/>
		<path class="st4" d="M237.4,127.7c1.3,0,2.6,0.3,3.8,1c1.2,0.7,2.1,1.6,2.8,2.8c0.7,1.2,1,2.5,1,3.9c0,1.4-0.3,2.7-1,3.9
			c-0.7,1.2-1.6,2.2-2.7,2.8c-1.2,0.7-2.4,1-3.8,1c-2,0-3.8-0.8-5.2-2.3c-1.4-1.5-2.2-3.3-2.2-5.5c0-2.3,0.8-4.2,2.5-5.8
			C233.9,128.3,235.5,127.7,237.4,127.7z M237.5,131.1c-1.1,0-2,0.4-2.8,1.2c-0.7,0.8-1.1,1.8-1.1,3.1c0,1.3,0.4,2.3,1.1,3.1
			c0.7,0.8,1.7,1.2,2.8,1.2c1.1,0,2.1-0.4,2.8-1.2c0.7-0.8,1.1-1.8,1.1-3.1c0-1.3-0.4-2.3-1.1-3.1
			C239.5,131.5,238.6,131.1,237.5,131.1z M238.1,120h4.2l-4.8,5.3h-2.6L238.1,120z"/>
		<path class="st4" d="M246.4,128h3.7l3.6,8.7l3.6-8.7h3.6l-6.1,14.8h-2.3L246.4,128z"/>
		<path class="st4" d="M277.3,136.5h-11.5c0.2,1.1,0.6,1.9,1.3,2.5c0.7,0.6,1.6,0.9,2.8,0.9c1.3,0,2.5-0.5,3.5-1.5l3,1.5
			c-0.8,1.1-1.7,1.9-2.7,2.5c-1.1,0.5-2.3,0.8-3.7,0.8c-2.2,0-4.1-0.7-5.5-2.2c-1.4-1.5-2.1-3.3-2.1-5.5c0-2.3,0.7-4.1,2.1-5.6
			c1.4-1.5,3.2-2.2,5.3-2.2c2.3,0,4.1,0.7,5.5,2.2c1.4,1.5,2.1,3.5,2.1,5.9L277.3,136.5z M273.7,133.6c-0.2-0.8-0.7-1.5-1.4-2
			c-0.7-0.5-1.5-0.8-2.4-0.8c-1,0-1.9,0.3-2.6,0.9c-0.5,0.4-0.9,1-1.3,1.9H273.7z"/>
		<path class="st4" d="M281.6,122c0.6,0,1.2,0.2,1.6,0.7c0.4,0.5,0.7,1,0.7,1.7c0,0.7-0.2,1.2-0.7,1.7c-0.4,0.5-1,0.7-1.6,0.7
			c-0.6,0-1.2-0.2-1.6-0.7c-0.4-0.5-0.7-1.1-0.7-1.7c0-0.7,0.2-1.2,0.7-1.7C280.4,122.2,281,122,281.6,122z M279.8,128h3.6v14.8
			h-3.6V128z"/>
		<path class="st4" d="M295.4,130.1l-2.2,2.3c-0.9-0.9-1.7-1.4-2.5-1.4c-0.4,0-0.7,0.1-0.9,0.3c-0.2,0.2-0.3,0.4-0.3,0.7
			c0,0.2,0.1,0.4,0.2,0.6c0.1,0.2,0.5,0.4,1.1,0.7l1.3,0.7c1.4,0.7,2.3,1.4,2.8,2.2c0.5,0.7,0.8,1.6,0.8,2.6c0,1.3-0.5,2.4-1.4,3.3
			c-0.9,0.9-2.2,1.3-3.7,1.3c-2.1,0-3.7-0.8-5-2.5l2.2-2.5c0.4,0.5,0.9,0.9,1.5,1.2c0.6,0.3,1.1,0.5,1.5,0.5c0.5,0,0.9-0.1,1.1-0.4
			c0.3-0.2,0.4-0.5,0.4-0.8c0-0.6-0.5-1.1-1.6-1.7l-1.2-0.6c-2.3-1.2-3.5-2.7-3.5-4.5c0-1.2,0.4-2.2,1.3-3c0.9-0.8,2-1.2,3.3-1.2
			c0.9,0,1.8,0.2,2.6,0.6C294.1,128.7,294.8,129.3,295.4,130.1z"/>
		<path class="st4" d="M309.6,128v1.6c0.6-0.7,1.3-1.2,2.1-1.5c0.8-0.3,1.6-0.5,2.4-0.5c1.9,0,3.4,0.7,4.8,2.2c1.3,1.5,2,3.3,2,5.6
			c0,2.2-0.7,4-2,5.5c-1.3,1.5-2.9,2.2-4.8,2.2c-0.8,0-1.6-0.2-2.3-0.5c-0.7-0.3-1.4-0.8-2.1-1.5v7H306V128H309.6z M313.3,131.1
			c-1.1,0-2.1,0.4-2.8,1.2c-0.7,0.8-1.1,1.8-1.1,3.1c0,1.3,0.4,2.4,1.1,3.2c0.7,0.8,1.7,1.2,2.8,1.2c1.1,0,2-0.4,2.8-1.2
			c0.7-0.8,1.1-1.9,1.1-3.2c0-1.3-0.4-2.3-1.1-3.1C315.4,131.5,314.4,131.1,313.3,131.1z"/>
		<path class="st4" d="M322.9,128h3.1v1.9c0.3-0.7,0.8-1.3,1.3-1.7c0.6-0.4,1.2-0.6,1.8-0.6c0.5,0,0.9,0.1,1.5,0.4l-1.1,3.2
			c-0.4-0.2-0.8-0.3-1-0.3c-0.6,0-1,0.4-1.4,1.1c-0.4,0.7-0.6,2.1-0.6,4.2l0,0.7v6h-3.6V128z"/>
		<path class="st4" d="M342.9,128h3.6v14.8h-3.6v-1.6c-0.7,0.7-1.4,1.2-2.1,1.5c-0.7,0.3-1.5,0.5-2.3,0.5c-1.8,0-3.4-0.7-4.8-2.2
			c-1.3-1.5-2-3.3-2-5.5c0-2.3,0.7-4.2,2-5.6c1.3-1.5,2.9-2.2,4.7-2.2c0.9,0,1.7,0.2,2.4,0.5c0.8,0.3,1.4,0.8,2.1,1.5V128z
			 M339.1,131.1c-1.1,0-2,0.4-2.8,1.2c-0.7,0.8-1.1,1.8-1.1,3.1c0,1.3,0.4,2.3,1.1,3.2c0.7,0.8,1.7,1.2,2.8,1.2
			c1.1,0,2.1-0.4,2.8-1.2c0.7-0.8,1.1-1.9,1.1-3.2c0-1.3-0.4-2.3-1.1-3.1C341.2,131.5,340.3,131.1,339.1,131.1z"/>
		<path class="st4" d="M356.1,128h3.7l3.6,8.7l3.6-8.7h3.6l-6.1,14.8h-2.3L356.1,128z"/>
		<path class="st4" d="M379.4,127.7c1.3,0,2.6,0.3,3.8,1c1.2,0.7,2.1,1.6,2.8,2.8c0.7,1.2,1,2.5,1,3.9c0,1.4-0.3,2.7-1,3.9
			c-0.7,1.2-1.6,2.2-2.7,2.8c-1.2,0.7-2.4,1-3.8,1c-2,0-3.8-0.8-5.2-2.3c-1.4-1.5-2.2-3.3-2.2-5.5c0-2.3,0.8-4.2,2.5-5.8
			C375.9,128.3,377.5,127.7,379.4,127.7z M379.5,131.1c-1.1,0-2,0.4-2.8,1.2c-0.7,0.8-1.1,1.8-1.1,3.1c0,1.3,0.4,2.3,1.1,3.1
			c0.7,0.8,1.7,1.2,2.8,1.2c1.1,0,2.1-0.4,2.8-1.2c0.7-0.8,1.1-1.8,1.1-3.1c0-1.3-0.4-2.3-1.1-3.1
			C381.5,131.5,380.6,131.1,379.5,131.1z"/>
		<path class="st4" d="M403.9,131l-3,1.7c-0.6-0.6-1.1-1-1.7-1.3c-0.5-0.2-1.2-0.4-1.9-0.4c-1.3,0-2.4,0.4-3.3,1.2
			c-0.8,0.8-1.2,1.9-1.2,3.2c0,1.3,0.4,2.3,1.2,3.1c0.8,0.8,1.8,1.2,3.1,1.2c1.6,0,2.9-0.6,3.7-1.7l2.8,2c-1.5,2.1-3.7,3.1-6.5,3.1
			c-2.5,0-4.5-0.8-5.9-2.3c-1.4-1.5-2.1-3.3-2.1-5.4c0-1.4,0.3-2.7,1-4c0.7-1.2,1.7-2.2,2.9-2.8c1.2-0.7,2.6-1,4.2-1
			c1.4,0,2.7,0.3,3.8,0.9C402.3,129.1,403.2,129.9,403.9,131z"/>
		<path class="st4" d="M421.4,136.5h-11.5c0.2,1.1,0.6,1.9,1.3,2.5c0.7,0.6,1.6,0.9,2.8,0.9c1.3,0,2.5-0.5,3.5-1.5l3,1.5
			c-0.8,1.1-1.7,1.9-2.7,2.5c-1.1,0.5-2.3,0.8-3.7,0.8c-2.2,0-4.1-0.7-5.5-2.2c-1.4-1.5-2.1-3.3-2.1-5.5c0-2.3,0.7-4.1,2.1-5.6
			c1.4-1.5,3.2-2.2,5.3-2.2c2.3,0,4.1,0.7,5.5,2.2c1.4,1.5,2.1,3.5,2.1,5.9L421.4,136.5z M408.6,125.3l3.9-3.8h2.9l3.9,3.8h-3.9
			l-1.4-1.8l-1.5,1.8H408.6z M417.9,133.6c-0.2-0.8-0.7-1.5-1.4-2c-0.7-0.5-1.5-0.8-2.4-0.8c-1,0-1.9,0.3-2.6,0.9
			c-0.5,0.4-0.9,1-1.3,1.9H417.9z"/>
	</g>
</g>
</svg>
